<svg xmlns="http://www.w3.org/2000/svg" viewBox="0 0 100 100"><rect width="100" height="100" rx="22" fill="#1f1a17"/><g transform="translate(27.96 22.00) scale(0.07133 -0.07133) translate(-19.00 -720.00)" fill="#faf6f3"><path transform="translate(0,0)" d="M34 0Q19 0 19 11Q19 20 32 23L55 27Q76 31 82.5 38.0Q89 45 89 66V654Q89 675 82.5 682.0Q76 689 55 693L32 697Q19 700 19 709Q19 720 34 720H237Q287 720 326.0 699.0Q365 678 387.5 642.0Q410 606 410 560Q410 515 383.5 476.5Q357 438 307 412Q301 409 301.0 404.0Q301 399 308 397Q376 374 413.0 323.5Q450 273 450 204Q450 145 423.0 98.5Q396 52 348.5 26.0Q301 0 241 0ZM213 411Q266 411 301.5 452.5Q337 494 337 556Q337 618 303.0 656.5Q269 695 213 695Q160 695 160 655V466Q160 437 172.5 424.0Q185 411 213 411ZM228 25Q293 25 334.0 74.5Q375 124 375 207Q375 290 333.5 338.0Q292 386 222 386Q160 386 160 337V94Q160 25 228 25Z"/><path transform="translate(478,0)" d="M107 -9Q85 -9 69.5 5.5Q54 20 54 44Q54 67 69.5 81.5Q85 96 107 96Q127 96 143.0 81.5Q159 67 159 44Q159 20 143.0 5.5Q127 -9 107 -9Z"/></g></svg>